<svg xmlns="http://www.w3.org/2000/svg" width="216" height="216" fill="none"><circle cx="108" cy="108" r="108" fill="#000" opacity=".6"/><path fill="#fff" d="m90.295 75.762 7.478 8.922-7.478-8.922Zm19.899 33.733v-3.306L98.672 92.452v43.073l-17.268-17.396H60.99v-17.075h20.445l6.098-6.163 7.19-7.222-7.478-8.922-10.753 10.752H49.5v40.153h26.993l33.734 33.733-.033-53.89ZM110.196 55.831v43.683l-9.95-11.875-1.54-1.862-.932-1.091-7.478-8.923 19.9-19.932ZM120.016 117.938l8.377 9.982c-2.246 2.535-4.975 4.654-8.024 6.258-.128.065-.225.129-.353.193v-16.433ZM135.358 109.628a27.247 27.247 0 0 1-4.301 14.765l-11.041-13.16V84.914c9.083 4.526 15.342 13.866 15.342 24.714ZM138.311 139.767l7.896 9.436a55.862 55.862 0 0 1-7.896 6.387 55.092 55.092 0 0 1-18.295 7.864v-12.678a42.53 42.53 0 0 0 10.367-4.654 43.346 43.346 0 0 0 7.928-6.355Z"/><path fill="#fff" d="M162.993 109.625c0 13.994-5.199 26.736-13.769 36.461l-7.992-9.532c5.938-7.35 9.468-16.723 9.468-26.897 0-19.45-12.935-35.884-30.684-41.148v-12.71c24.586 5.585 42.977 27.539 42.977 53.826ZM155.994 160.885l-7.767 6.515-9.918-11.811-7.928-9.469-10.014-11.94-.353-.417-9.822-11.715-11.49-13.737-11.17-13.32-7.51-8.955-17.653-21.088 7.8-6.515 17.074 20.38 7.479 8.924 3.98 4.75 11.49 13.737 9.822 11.716 8.377 9.982 9.918 11.843 7.928 9.437 9.757 11.683Z"/></svg>