<svg xmlns="http://www.w3.org/2000/svg" xml:space="preserve" style="enable-background:new 0 0 489.5 489.5" viewBox="0 0 489.5 489.5"><path d="M265.9 464.3c88.6-9.9 159.6-80.7 169.7-169.3C448.9 179.2 358.8 80.6 246 79.3v-52c0-2.9-3.6-4.4-6-2.6l-107 78.6c-1.8 1.4-1.8 4 0 5.3l107 78.6c2.4 1.8 6 .2 6-2.6v-51.9c79.3 1.3 142.8 68.7 137.4 149.4-4.6 69.4-61.2 125.6-130.5 130.1-73.5 4.7-136-47.8-147.2-117.3-2.1-12.9-13.3-22.3-26.3-22.3-16.1 0-28.8 14.3-26.2 30.3 15.5 99 106.9 173.2 212.7 161.4z" style="fill:#f3c060"/></svg>